PathFileType	4	(X/Y/Z)	C:\Users\Basilio\Documents\Thesis Gigler\squatting_fais\c3dfiles\077\SJ_pre2\markers_experimental.trc
DataRate	CameraRate	NumFrames	NumMarkers	Units	OrigDataRate	OrigDataStartFrame	OrigNumFrames
200.000000	200.000000	4	60	mm	200.000000	157	1263
Frame#	Time	FHD			LBHD			RBHD			C7			T10			CLAV			LSHO			LUUPA			LMUPA			LDUPA			LLEP			LMEP			LRAD			LUL			LRFIN			RSHO			RUPA1			RMUPA			RDUPA			RLEP			RMEP			RRAD			RUL			RUFIN			LASI			RASI			USACR			LSACR			RSACR			LTHI1			LTHI2			LTHI3			LTHI4			LLFC			LMFC			LTIB1			LTIB2			LTIB3			LTIB4			LLMAL			LHEE			LMT1			LMT2			LMT5			RTHI			RTHI2			RTHI3			RTHI4			RLFC			RMFC			RTIB1			RTIB2			RTIB3			RTIB4			RLMAL			RMMAL			RHEE			RMT1			RMT2			RMT5			
		X1	Y1	Z1	X2	Y2	Z2	X3	Y3	Z3	X4	Y4	Z4	X5	Y5	Z5	X6	Y6	Z6	X7	Y7	Z7	X8	Y8	Z8	X9	Y9	Z9	X10	Y10	Z10	X11	Y11	Z11	X12	Y12	Z12	X13	Y13	Z13	X14	Y14	Z14	X15	Y15	Z15	X16	Y16	Z16	X17	Y17	Z17	X18	Y18	Z18	X19	Y19	Z19	X20	Y20	Z20	X21	Y21	Z21	X22	Y22	Z22	X23	Y23	Z23	X24	Y24	Z24	X25	Y25	Z25	X26	Y26	Z26	X27	Y27	Z27	X28	Y28	Z28	X29	Y29	Z29	X30	Y30	Z30	X31	Y31	Z31	X32	Y32	Z32	X33	Y33	Z33	X34	Y34	Z34	X35	Y35	Z35	X36	Y36	Z36	X37	Y37	Z37	X38	Y38	Z38	X39	Y39	Z39	X40	Y40	Z40	X41	Y41	Z41	X42	Y42	Z42	X43	Y43	Z43	X44	Y44	Z44	X45	Y45	Z45	X46	Y46	Z46	X47	Y47	Z47	X48	Y48	Z48	X49	Y49	Z49	X50	Y50	Z50	X51	Y51	Z51	X52	Y52	Z52	X53	Y53	Z53	X54	Y54	Z54	X55	Y55	Z55	X56	Y56	Z56	X57	Y57	Z57	X58	Y58	Z58	X59	Y59	Z59	X60	Y60	Z60	

158	0.785	-163.2405548095703	1822.984130859375	-915.6053466796877	-305.3735961914063	1718.646728515625	-988.8410644531252	-314.2857055664063	1713.530883789063	-843.574645996094	-373.0357666015626	1577.216064453125	-920.7041625976565	-401.9585571289064	1246.614624023438	-923.1753540039065	-207.962631225586	1520.265991210938	-919.5516357421877	-273.5056457519532	1549.340698242188	-1112.31005859375	-320.5447387695313	1406.836059570313	-1274.740234375	-283.5817260742188	1369.709838867188	-1278.5927734375	-329.7697753906251	1354.741577148438	-1318.023803710938	-324.1487121582032	1293.114990234375	-1350.462646484375	-400.3295288085939	1270.773315429688	-1315.057739257813	-300.6086425781251	1058.4462890625	-1153.674682617188	-251.7437286376954	1020.291442871094	-1206.734375	-247.4425811767579	1051.664428710938	-1101.30224609375	-246.3737945556641	1548.934448242188	-727.6184082031251	-314.3926086425782	1414.020263671875	-555.9282836914064	-286.9374389648438	1371.817016601563	-555.1535644531251	-328.8870849609376	1358.776977539063	-513.8348999023439	-331.4450378417969	1292.996948242188	-486.014129638672	-413.401824951172	1278.394287109375	-518.5657958984376	-323.2132873535157	1064.411499023438	-676.2264404296876	-263.8159790039063	1035.6416015625	-631.9864501953126	-267.6071777343751	1069.18359375	-726.2907104492189	-211.6147155761719	1037.138427734375	-1057.352294921875	-220.1506500244141	1050.16357421875	-777.3441162109377	-417.4411621093751	1134.412353515625	-921.4267578125002	-422.9370727539064	1104.095947265625	-950.3482666015627	-427.7838745117189	1102.708374023438	-894.9296875000002	-318.2454528808594	837.8007812500002	-1137.349243164063	-301.9413146972657	756.1682739257814	-1148.3203125	-254.4098052978516	751.0713500976564	-1142.523681640625	-338.3639526367188	707.5398559570314	-1140.497436523438	-329.9374389648438	558.5033569335939	-1138.144287109375	-311.3575744628907	511.790496826172	-1014.684509277344	-290.8816223144532	336.0465087890626	-1129.447021484375	-332.6083679199219	306.3985900878907	-1203.841674804688	-295.8094177246094	299.1735534667969	-1176.189575195313	-293.3475646972657	213.5642700195313	-1164.905029296875	-355.4386596679688	101.8507080078125	-1222.26220703125	-396.1241760253907	45.56201934814454	-1171.870361328125	-178.4819488525391	59.50341033935548	-1197.104248046875	-186.7709655761719	60.5139617919922	-1238.772094726563	-309.5552673339844	100.9658355712891	-1144.669067382813	-366.0569763183594	734.1221313476564	-696.0625610351564	-335.7833251953126	675.3872680664064	-682.4406127929689	-301.8630676269532	672.5897827148439	-681.9954833984376	-368.8007812500001	602.5848388671876	-697.0168457031251	-371.0863342285157	534.3104858398439	-689.8197631835939	-311.8581542968751	499.0165405273439	-801.7153930664065	-313.3226013183594	405.7081604003907	-667.5080566406251	-378.0461425781251	327.9346008300782	-636.1685180664064	-331.3282470703126	323.8423461914063	-642.9141235351564	-312.3765869140626	274.4844665527344	-669.6359252929689	-373.9613952636719	98.0357360839844	-612.6769409179689	-321.0808105468751	94.80073547363283	-689.9777832031251	-413.0710754394532	44.7237777709961	-676.9527587890626	-201.3878479003907	60.50715255737306	-595.5029296875001	-216.2365722656251	62.133602142334	-560.7973022460939	-245.8592376708985	42.03754043579102	-518.5211181640626	
159	0.79	-162.9722442626953	1823.392578125	-915.7828369140627	-304.7913513183594	1718.584716796875	-988.6943969726565	-313.9049987792969	1712.833374023438	-843.530700683594	-372.6058959960938	1577.364868164063	-920.7200927734377	-401.8618469238282	1246.788208007813	-923.1399536132815	-207.6117553710938	1520.321533203125	-919.5827636718752	-273.0021667480469	1549.489013671875	-1112.291625976563	-320.0782775878907	1407.037353515625	-1274.8447265625	-283.2646179199219	1369.922241210938	-1278.660522460938	-329.2680053710938	1354.923095703125	-1318.086181640625	-323.8434143066407	1293.2880859375	-1350.5400390625	-400.0728759765626	1271.052368164063	-1315.223510742188	-301.2338562011719	1058.241088867188	-1153.664916992188	-251.9234771728516	1020.419860839844	-1206.7353515625	-247.6350250244141	1051.7509765625	-1101.3388671875	-245.9594421386719	1548.9990234375	-727.6702270507814	-313.9409484863282	1414.02734375	-555.9291381835939	-286.5583190917969	1371.8427734375	-555.0938110351564	-328.4749450683594	1358.863647460938	-513.7950439453126	-331.0103149414063	1293.13818359375	-485.9533691406251	-413.0242309570314	1278.6083984375	-518.4957275390626	-324.9090576171876	1064.0126953125	-676.2479248046876	-263.7196960449219	1035.73681640625	-632.0411376953126	-267.5689392089844	1069.353271484375	-726.2902221679689	-211.7470092773438	1037.36865234375	-1057.354125976563	-220.1339111328126	1050.253295898438	-777.345642089844	-417.5127258300782	1134.5205078125	-921.3486328125002	-423.0500793457032	1104.309692382813	-950.325134277344	-427.8692626953126	1102.76220703125	-894.8963012695315	-318.4209289550782	837.9506835937502	-1137.624145507813	-301.8788452148438	756.3602294921876	-1148.469360351563	-254.2384643554688	751.2842407226564	-1142.738891601563	-338.3688964843751	707.7075195312501	-1140.696411132813	-329.2467346191407	558.4331665039064	-1138.1884765625	-310.9915771484376	511.7823791503907	-1014.794738769531	-290.5343933105469	335.9685363769532	-1129.551635742188	-332.3196411132813	306.4523925781251	-1203.834228515625	-295.5094299316407	298.8215026855469	-1176.320190429688	-293.1700439453126	213.3814086914063	-1164.906005859375	-355.3707580566407	101.7779693603516	-1222.241577148438	-396.1091613769532	45.59999084472657	-1171.846313476563	-178.56591796875	59.49611663818361	-1197.081787109375	-186.8072814941407	60.64832687377931	-1238.864868164063	-309.4540710449219	100.8978958129883	-1144.677368164063	-365.7252197265626	734.1022338867189	-695.8789672851564	-335.4632568359376	675.3841552734376	-682.2685546875001	-301.4526977539063	672.8384399414064	-681.8187866210939	-368.3564758300782	602.5671997070314	-696.8463745117189	-370.5217285156251	534.3145141601564	-689.6456909179689	-311.4852600097657	499.0663452148439	-801.5502929687502	-312.7860412597657	405.7136840820314	-667.4357299804689	-377.6347656250001	328.0200500488282	-636.0906372070314	-330.9922180175782	323.9062194824219	-642.8762817382814	-312.0341186523438	274.3663940429688	-669.6309204101564	-373.9349975585938	98.03113555908206	-612.6477661132814	-321.1475830078126	94.82803344726564	-690.0134887695314	-413.1163635253907	44.7789421081543	-676.9248657226564	-201.456527709961	60.48265838623048	-595.5466918945314	-216.2460937500001	62.11105346679689	-560.8273315429689	-245.8767547607422	42.05671310424805	-518.5419311523439	
160	0.795	-162.265380859375	1823.213500976563	-915.787780761719	-304.0355529785157	1718.71875	-988.7539672851565	-313.3674011230469	1712.869873046875	-843.548767089844	-372.1562194824219	1577.604858398438	-920.747497558594	-401.8718566894532	1246.917846679688	-923.1290283203127	-207.1937713623047	1520.289794921875	-919.6780395507815	-272.5184631347657	1549.626586914063	-1112.287231445313	-319.5827941894532	1407.242309570313	-1274.8681640625	-282.8797607421876	1370.016967773438	-1278.71044921875	-328.8009948730469	1355.091064453125	-1318.257080078125	-323.3307189941407	1293.49755859375	-1350.605834960938	-399.7188110351564	1271.352172851563	-1315.446166992188	-300.9398498535157	1058.629516601563	-1153.843994140625	-251.8408508300782	1020.456726074219	-1206.7158203125	-247.9535827636719	1051.943359375	-1101.349609375	-245.4778900146485	1549.034301757813	-727.7182617187501	-313.4566040039063	1414.1103515625	-555.8485107421876	-286.0928039550782	1371.94970703125	-555.2100830078126	-328.0606689453126	1358.9970703125	-513.7479858398439	-330.5638427734376	1293.312744140625	-485.9883728027345	-412.6618957519532	1278.871459960938	-518.4522705078126	-324.7604064941407	1064.193237304688	-676.1823120117189	-263.6614685058594	1035.834228515625	-632.0638427734376	-267.5771789550782	1069.4990234375	-726.2998657226564	-211.9263153076172	1037.471923828125	-1057.417602539063	-220.2775115966797	1050.443237304688	-777.5067138671877	-417.5328369140626	1134.692016601563	-921.3367919921877	-423.1939086914064	1104.4169921875	-950.303894042969	-427.973846435547	1102.901733398438	-894.845397949219	-318.4322509765626	838.0524902343752	-1137.705932617188	-301.8251647949219	756.6146240234376	-1148.580688476563	-254.2010803222657	751.4569091796876	-1142.85498046875	-338.2003784179688	707.7230224609376	-1140.87060546875	-328.7441101074219	558.4960327148439	-1138.29296875	-310.6508789062501	511.8121948242189	-1014.901672363281	-289.9623718261719	335.7233886718751	-1129.494873046875	-331.9504089355469	306.4665832519532	-1203.964965820313	-295.1735229492188	298.8580017089844	-1176.41064453125	-292.9051513671876	213.2504119873047	-1164.883666992188	-355.5162658691407	101.8006134033203	-1222.190551757813	-396.0657653808595	45.54864501953126	-1171.873657226563	-178.5205841064453	59.48608016967775	-1197.074829101563	-186.9299468994141	60.63365173339845	-1238.836791992188	-309.4093017578126	100.8458099365235	-1144.693115234375	-365.4215393066407	734.1500854492189	-695.7447509765626	-335.0827026367188	675.4523925781251	-682.0332641601564	-301.0462951660157	673.0468750000001	-681.6567382812501	-367.8792114257813	602.5568847656251	-696.6981811523439	-369.9416809082032	534.3605957031251	-689.4002075195314	-310.9968566894532	499.1650390625001	-801.3992919921877	-312.3490600585938	405.6304321289064	-667.3775634765626	-377.1525573730469	328.0308532714844	-635.8980712890626	-330.7845764160157	323.4627075195313	-642.7586059570314	-311.7690734863282	274.3458862304688	-669.6159667968751	-373.9160766601563	97.9705505371094	-612.6229858398439	-320.9857482910157	94.78967285156251	-689.9624633789064	-413.0723571777345	44.75195312500001	-676.9464721679689	-201.4051818847657	60.48287963867189	-595.5778808593751	-216.2138061523438	62.08830642700197	-560.8807373046876	-245.8574676513672	42.11704254150391	-518.5316772460939	
161	0.8	-161.40380859375	1822.897583007813	-915.7280273437502	-303.3958435058594	1718.986206054688	-988.794860839844	-312.6206665039063	1713.48681640625	-843.5522460937502	-371.7206726074219	1577.80126953125	-920.7636718750002	-401.7859802246095	1247.10498046875	-923.093933105469	-206.7072753906251	1520.266845703125	-919.6967773437502	-272.0855102539063	1549.776489257813	-1112.362915039063	-319.1380004882813	1407.380615234375	-1274.91650390625	-282.0832519531251	1370.055786132813	-1278.763916015625	-328.6059265136719	1355.423828125	-1318.269653320313	-323.0545043945313	1293.643188476563	-1350.748901367188	-399.4804992675782	1271.608032226563	-1315.59375	-301.4388427734376	1058.589599609375	-1153.790283203125	-252.0777282714844	1020.535949707031	-1206.672729492188	-248.2554473876954	1052.1240234375	-1101.413208007813	-244.9411621093751	1549.011352539063	-727.7285156250001	-312.8921813964844	1414.289428710938	-555.8022460937501	-285.6314697265626	1372.06787109375	-555.2129516601564	-327.4477539062501	1359.237670898438	-513.6917724609376	-330.0967102050782	1293.62255859375	-485.9913635253907	-412.418670654297	1279.060791015625	-518.3001098632814	-324.6924438476563	1064.405517578125	-676.1987915039064	-263.5775451660157	1036.026733398438	-632.1076660156251	-267.6354675292969	1069.668334960938	-726.3556518554689	-212.2481689453126	1037.619140625	-1057.435302734375	-220.3641967773438	1050.567749023438	-777.5119628906252	-417.5913391113282	1134.790161132813	-921.3079833984377	-423.2643127441407	1104.578735351563	-950.2717285156252	-428.0640258789064	1103.081787109375	-894.811462402344	-318.4786071777344	838.262145996094	-1137.927734375	-301.7284240722657	756.8182983398439	-1148.799682617188	-254.0391845703126	751.7413940429689	-1143.07080078125	-337.8463745117188	707.7833862304689	-1141.029296875	-328.1561584472657	558.5150756835939	-1138.353881835938	-310.0969848632813	511.9869689941407	-1015.062072753906	-290.3396911621094	336.1067504882813	-1130.009643554688	-331.4684753417969	306.5619506835938	-1204.083740234375	-294.8523864746094	298.7749023437501	-1176.413208007813	-292.7253417968751	213.2455291748047	-1164.853637695313	-355.3872070312501	101.8483047485352	-1222.14404296875	-396.0720825195314	45.59596252441407	-1171.846923828125	-178.5966339111328	59.52892684936525	-1197.098754882813	-186.7599487304688	60.52976226806642	-1238.8203125	-309.3244018554688	100.8952407836914	-1144.682495117188	-365.0005798339844	734.2407836914064	-695.6217651367189	-334.6609191894532	675.4430541992189	-681.7918090820314	-300.6478881835938	673.2227783203126	-681.6431884765626	-367.3936462402344	602.6976928710939	-696.4456787109376	-369.2488708496094	534.4901733398439	-689.1439819335939	-310.3604125976563	499.2906188964845	-801.179382324219	-311.8185119628907	405.6343688964845	-667.2188110351564	-376.7509460449219	328.0055236816407	-635.7635498046876	-330.3453674316407	323.3950195312501	-642.7022094726564	-311.9076232910157	274.5449218750001	-669.8835449218751	-373.8054199218751	98.02516937255862	-612.6128540039064	-321.0535583496094	94.81972503662111	-689.9780273437501	-413.0726623535157	44.76989364624024	-676.9463500976564	-201.4416809082032	60.47176742553712	-595.6074829101564	-216.2043914794922	62.11213684082033	-560.8674316406251	-245.8878021240235	42.10161209106446	-518.6045532226564	
